<svg xmlns="http://www.w3.org/2000/svg" viewBox="0 0 24 24" fill="none" stroke="currentColor" stroke-width="1.75" stroke-linecap="round" stroke-linejoin="round">
  <path d="M4 13c0-2 2-3 4-3h7c2 0 4 1 4 3v3"/>
  <path d="M4 13v3"/>
  <path d="M4 16h15"/>
  <path d="M6 16v4"/>
  <path d="M9 16v4"/>
  <path d="M14 16v4"/>
  <path d="M17 16v4"/>
  <path d="M19 13c1 1 2 1 2 0"/>
  <path d="M3 9c1-1 2-1 3 0"/>
  <path d="M16 9c1-1 2-1 3 0"/>
  <circle cx="6" cy="11" r="0.5" fill="currentColor"/>
  <path d="M11 19c0 1 0 2-1 2"/>
</svg>
