<svg xmlns="http://www.w3.org/2000/svg" viewBox="0 0 24 24" fill="none" stroke="currentColor" stroke-width="1.75" stroke-linecap="round" stroke-linejoin="round">
  <path d="M4 14c0-2 2-3 4-3h6c2 0 4 1 4 3v2"/>
  <path d="M4 14v2"/>
  <path d="M4 16h14"/>
  <path d="M6 16v4"/>
  <path d="M9 16v4"/>
  <path d="M13 16v4"/>
  <path d="M16 16v4"/>
  <path d="M18 11l1-3"/>
  <path d="M19 8c1-1 2-2 1-3"/>
  <path d="M16 8c1-1 1-2 0-3"/>
  <path d="M15 11v3"/>
  <path d="M14 14l-1 2"/>
  <circle cx="17" cy="10" r="0.4" fill="currentColor"/>
</svg>
